<svg width="16" height="16" viewBox="0 0 16 16" fill="none" xmlns="http://www.w3.org/2000/svg">
<path fill-rule="evenodd" clip-rule="evenodd" d="M8.00737 0C3.58341 0 0 3.58341 0 8.00737C0 12.4166 3.58341 16 8.00737 16C12.4166 16 16 12.4166 16 8.00737C16 3.58341 12.4166 0 8.00737 0ZM11.6055 12.8C10.7797 11.7088 10.2341 10.4111 10.0719 8.99539H8.99539V13.9207C9.96866 13.7585 10.8535 13.3604 11.6055 12.8ZM10.0719 7.00461C10.2341 5.58894 10.7797 4.29124 11.6055 3.2C10.8535 2.63963 9.96866 2.24147 8.99539 2.07926V7.00461H10.0719V7.00461ZM13.0065 4.6894C12.5493 5.36774 12.2249 6.14931 12.0922 7.00461H13.9207C13.7733 6.14931 13.4636 5.36774 13.0065 4.6894V4.6894ZM12.0922 8.99539C12.2249 9.85069 12.5493 10.6323 13.0065 11.3253C13.4636 10.6323 13.7733 9.85069 13.9207 8.99539H12.0922V8.99539ZM7.00461 13.9207V8.99539H5.94286C5.7659 10.4111 5.22028 11.7235 4.39447 12.8C5.14654 13.3604 6.03134 13.7585 7.00461 13.9207V13.9207ZM7.00461 7.00461V2.07926C6.03134 2.24147 5.14654 2.63963 4.39447 3.2C5.22028 4.29124 5.7659 5.58894 5.94286 7.00461H7.00461ZM2.07926 7.00461H3.92258C3.77512 6.14931 3.45069 5.36774 2.99355 4.6894C2.55115 5.36774 2.22673 6.14931 2.07926 7.00461ZM3.92258 8.99539H2.07926C2.22673 9.85069 2.55115 10.6323 2.99355 11.3253C3.45069 10.6323 3.77512 9.85069 3.92258 8.99539Z" fill="#A8A8A8"/>
</svg>
