<svg width="16" height="16" viewBox="0 0 16 16" fill="none" xmlns="http://www.w3.org/2000/svg">
<path fill-rule="evenodd" clip-rule="evenodd" d="M8.03653 16H7.96347C5.84475 16 4.01826 14.4658 3.57991 12.4201C1.46119 11.9817 0 10.1553 0 8.03653V7.96347C0 5.84475 1.46119 4.01826 3.57991 3.57991C4.01826 1.46119 5.84475 0 7.96347 0H8.03653C10.1553 0 11.9817 1.46119 12.4201 3.57991C14.4658 4.01826 16 5.84475 16 7.96347V8.03653C16 10.1553 14.4658 11.9087 12.4201 12.347C11.9817 14.4658 10.1553 16 8.03653 16ZM7.96347 5.99087C10.5936 5.99087 10.5936 10.0091 7.96347 10.0091C5.33333 10.0091 5.33333 5.99087 7.96347 5.99087ZM9.78995 9.78995C11.3242 11.2511 13.9543 10.3014 13.9543 7.96347C13.9543 5.77169 11.3242 4.6758 9.78995 6.21005C11.2511 4.6758 10.3014 1.9726 7.96347 1.9726C5.77169 1.9726 4.6758 4.6758 6.21005 6.21005C4.6758 4.6758 1.9726 5.69863 1.9726 8.03653C1.9726 10.2283 4.6758 11.3242 6.21005 9.78995C4.6758 11.2511 5.69863 13.9543 8.03653 13.9543C10.2283 13.9543 11.3242 11.3242 9.78995 9.78995Z" fill="#A8A8A8"/>
</svg>
