<svg width="16" height="16" viewBox="0 0 16 16" fill="none" xmlns="http://www.w3.org/2000/svg">
<path fill-rule="evenodd" clip-rule="evenodd" d="M3.00135 10.0055C3.52984 10.0055 4.01429 10.1377 4.41066 10.3581L5.07128 9.74105L6.52463 11.1074L5.77593 11.8127C5.90805 12.2094 5.99614 12.6061 5.99614 13.0028C5.99614 14.6777 4.67491 16 3.00135 16C1.3278 16 0.00656641 14.6777 0.00656641 13.0028C0.00656641 11.3278 1.3278 10.0055 3.00135 10.0055ZM12.9986 10.0055C12.5142 10.0055 12.0297 10.1377 11.5893 10.3581L0.535058 0C-0.213638 0.793388 -0.169597 2.07163 0.62314 2.82094L10.2241 11.8127C10.0919 12.2094 10.0039 12.6061 10.0039 13.0028C10.0039 14.6777 11.3251 16 12.9986 16C14.6722 16 15.9934 14.6777 15.9934 13.0028C15.9934 11.3278 14.6722 10.0055 12.9986 10.0055V10.0055ZM12.9986 11.989C12.4702 11.989 11.9857 12.4738 11.9857 13.0028C11.9857 13.5758 12.4702 14.0165 12.9986 14.0165C13.5712 14.0165 14.0116 13.5758 14.0116 13.0028C14.0116 12.4738 13.5712 11.989 12.9986 11.989ZM9.47537 5.64187L15.4649 0C16.2136 0.793388 16.1696 2.07163 15.3769 2.82094L10.9287 7.00826L9.47537 5.64187ZM3.00135 11.989C3.57388 11.989 4.01429 12.4738 4.01429 13.0028C4.01429 13.5758 3.57388 14.0165 3.00135 14.0165C2.47286 14.0165 1.98841 13.5758 1.98841 13.0028C1.98841 12.4738 2.47286 11.989 3.00135 11.989Z" fill="#A8A8A8"/>
</svg>
