<svg width="16" height="16" viewBox="0 0 16 16" fill="none" xmlns="http://www.w3.org/2000/svg">
<path fill-rule="evenodd" clip-rule="evenodd" d="M11.0027 7.98357V11.0062H12.4932C13.326 11.0062 13.9836 10.3053 13.9836 9.51677C13.9836 8.68446 13.326 7.98357 12.4932 7.98357H11.0027V7.98357ZM5.39178 0.887064C6.53151 -0.295688 8.46027 -0.295688 9.6 0.887064C9.81918 1.06229 10.0384 1.1937 10.3014 1.1937C10.7397 1.1937 11.0904 0.930869 11.2219 0.580424C11.3973 0.229979 11.7479 0.0109514 12.1425 0.0109514C12.4932 0.0109514 12.8 0.186174 12.9753 0.492813C13.1507 0.755647 13.1945 1.10609 13.063 1.41273C12.5808 2.46407 11.5288 3.16496 10.3014 3.16496C9.51233 3.16496 8.72329 2.85832 8.19726 2.28884C7.80274 1.89459 7.18904 1.89459 6.79452 2.28884C6.57534 2.50787 6.48767 2.7707 6.48767 2.98973C6.48767 3.55921 6.04932 3.99726 5.47945 3.99726C4.95342 3.99726 4.51507 3.55921 4.51507 2.98973C4.51507 2.24504 4.77808 1.45654 5.39178 0.887064V0.887064ZM3.50685 13.9849H7.49589C8.32877 13.9849 8.9863 13.3279 8.9863 12.4955V7.98357H2.01644V12.4955C2.01644 13.3279 2.67397 13.9849 3.50685 13.9849ZM11.0027 12.9774C11.0027 14.642 9.64384 16 7.97808 16H2.98082C1.3589 16 0 14.642 0 12.9774V6.01232C4.16438 6.01232 8.32877 6.01232 12.4932 6.01232C14.4219 6.01232 16 7.54552 16 9.51677C16 11.4442 14.4219 12.9774 12.4932 12.9774H11.0027V12.9774Z" fill="#A8A8A8"/>
</svg>
