<svg width="16" height="16" viewBox="0 0 16 16" fill="none" xmlns="http://www.w3.org/2000/svg">
<path fill-rule="evenodd" clip-rule="evenodd" d="M8 0C3.58974 0 0 3.58974 0 8C0 12.4103 3.58974 16 8 16C12.4103 16 16 12.4103 16 8C16 3.58974 12.4103 0 8 0ZM7.58974 8.51282C7.79487 8.71795 8 9.02564 8 9.33333C8 9.64103 7.79487 9.84615 7.58974 10.0513C7.58974 10.1538 7.48718 10.2564 7.38462 10.359L6.35897 12.1026C5.84615 12.9231 4.51282 12.6154 4.51282 11.4872L4.61538 10.0513C4.61538 9.94872 4.61538 9.84615 4.51282 9.74359L4.30769 8.71795C4.20513 8.61539 4.20513 8.61538 4.10256 8.51282C4 8.30769 4 8.20513 4 8C4 7.69231 3.89744 7.48718 3.79487 7.17949C3.69231 6.97436 3.58974 6.76923 3.48718 6.5641C3.38462 6.25641 3.28205 5.94872 3.07692 5.74359C2.8718 5.53846 2.76923 5.33333 2.76923 5.02564C2.25641 5.94872 1.94872 6.87179 1.94872 8C1.94872 11.2821 4.71795 13.9487 8 13.9487C9.94872 13.9487 11.6923 13.0256 12.7179 11.6923C12.6154 11.6923 12.4103 11.7949 12.3077 11.7949C11.6923 11.7949 11.2821 11.2821 11.2821 10.7692C11.2821 10.5641 11.2821 10.4615 11.3846 10.2564C11.5897 9.94872 11.5897 9.64103 11.3846 9.23077L10.9744 8.61538C10.8718 8.41026 10.6667 8.20513 10.4615 8.10256C10.0513 8 9.74359 7.58974 9.74359 7.17949C9.74359 6.97436 9.84615 6.87179 9.94872 6.66667C10.4615 5.64103 12.2051 5.23077 12 4.82051C11.8974 4.61538 10.9744 4.71795 10.6667 4.71795C10.0513 4.71795 9.64103 4.20513 9.64103 3.69231V2.97436C9.64103 2.76923 9.74359 2.66667 9.84615 2.5641C10.0513 2.46154 10.1538 2.35897 10.359 2.46154C9.64103 2.15385 8.82051 1.94872 8 1.94872C7.38462 1.94872 6.76923 2.05128 6.25641 2.25641C6.8718 2.46154 7.07692 3.38462 6.46154 4L5.84615 4.20513C5.4359 4.41026 5.02564 4.71795 4.82051 5.12821C4.71795 5.33333 4.61538 5.4359 4.51282 5.64103C4.51282 5.74359 4.41026 5.84615 4.30769 5.94872C4.20513 6.05128 4.20513 6.15385 4.20513 6.25641C4.20513 6.35897 4.20513 6.46154 4.30769 6.5641C4.30769 6.76923 4.61538 6.97436 4.82051 6.97436C5.02564 6.8718 5.33333 6.97436 5.53846 7.17949L7.58974 8.51282V8.51282Z" fill="#A8A8A8"/>
</svg>
