<svg width="16" height="16" viewBox="0 0 16 16" fill="none" xmlns="http://www.w3.org/2000/svg">
<path fill-rule="evenodd" clip-rule="evenodd" d="M13.7436 14.0513C13.3333 13.0256 12.7179 12.1026 12 11.4872C10.8718 10.5641 9.53846 10.0513 8 10.0513C6.46154 10.0513 5.12821 10.5641 4 11.4872C3.28205 12.1026 2.66667 13.0256 2.25641 14.0513H13.7436ZM16 14.8718C15.3846 10.8718 12 8 8 8C4 8 0.615385 10.8718 0 14.8718C0 15.1795 0 15.4872 0.205128 15.6923C0.410256 15.8974 0.717949 16 1.02564 16H14.9744C15.2821 16 15.5897 15.8974 15.7949 15.6923C16 15.4872 16 15.1795 16 14.8718ZM8 8C10.2564 8 12 6.25641 12 4C12 1.74359 10.2564 0 8 0C5.74359 0 4 1.74359 4 4C4 6.25641 5.74359 8 8 8ZM8 6.05128C9.12821 6.05128 10.0513 5.12821 10.0513 4C10.0513 2.87179 9.12821 2.05128 8 2.05128C6.87179 2.05128 6.05128 2.87179 6.05128 4C6.05128 5.12821 6.87179 6.05128 8 6.05128Z" fill="#A8A8A8"/>
</svg>
