<svg width="16" height="16" viewBox="0 0 16 16" fill="none" xmlns="http://www.w3.org/2000/svg">
<path fill-rule="evenodd" clip-rule="evenodd" d="M8.86766 0.587156L15.8979 14.5321C16.0444 14.8991 16.0444 15.1927 15.8247 15.5596C15.605 15.8532 15.3121 16 14.9459 16H1.03185C0.66569 16 0.372763 15.8532 0.153067 15.5596C0.00660331 15.1927 -0.0666286 14.8991 0.0798352 14.5321C2.42326 9.90826 4.76668 5.21101 7.1101 0.587156C7.25656 0.220183 7.62272 0 7.98888 0C8.35504 0 8.7212 0.220183 8.86766 0.587156V0.587156ZM7.98888 11.0092C8.57473 11.0092 9.01413 11.4495 9.01413 12.0367C9.01413 12.5505 8.57473 12.9908 7.98888 12.9908C7.47626 12.9908 6.96363 12.5505 6.96363 12.0367C6.96363 11.4495 7.47626 11.0092 7.98888 11.0092ZM7.98888 6.01835C8.57473 6.01835 9.01413 6.45872 9.01413 6.97248V9.02752C9.01413 9.54128 8.57473 9.98165 7.98888 9.98165C7.47626 9.98165 6.96363 9.54128 6.96363 9.02752V6.97248C6.96363 6.45872 7.47626 6.01835 7.98888 6.01835ZM10.552 8.36697C11.3575 10.055 11.9434 11.156 10.552 8.36697V8.36697ZM10.552 8.36697C11.4308 10.1284 12.1631 11.5963 10.552 8.36697C7.62272 2.49541 9.38029 6.01835 10.552 8.36697L7.98888 3.22936L5.499 8.29358C6.8904 5.50459 7.98888 3.30275 5.499 8.29358C3.81466 11.6697 4.83991 9.61468 5.499 8.29358L2.64295 14.0183H13.3348L10.552 8.36697ZM10.552 8.36697C8.28181 3.81651 9.52675 6.31193 10.552 8.36697V8.36697ZM5.499 8.29358C5.86515 7.41284 6.15808 6.89908 5.499 8.29358V8.29358ZM5.499 8.29358C1.39801 16.367 3.6682 11.8165 5.499 8.29358V8.29358Z" fill="#A8A8A8"/>
</svg>
