<svg width="16" height="16" viewBox="0 0 16 16" fill="none" xmlns="http://www.w3.org/2000/svg">
<path fill-rule="evenodd" clip-rule="evenodd" d="M1.01005 16C0.675131 16 0.383898 15.8543 0.194597 15.5774C-0.00926652 15.3005 -0.0529515 14.98 0.0635417 14.674L5.05819 0.67031C5.2038 0.262295 5.56785 0 6.0047 0C6.42698 0 6.80559 0.262295 6.9512 0.67031L8.71316 5.62477L9.77616 2.66667C9.92178 2.25865 10.2858 1.99636 10.7081 1.99636C11.145 1.99636 11.509 2.25865 11.6546 2.66667L15.9357 14.674C16.0522 14.98 16.0085 15.3005 15.8192 15.5774C15.6154 15.8543 15.3387 16 15.0038 16C10.446 16 5.84452 16 1.01005 16V16ZM10.6353 11.0018L11.6983 14.0036H13.5768L12.5138 11.0018C12.2371 10.9727 11.9604 10.929 11.7129 10.827C11.4071 10.9435 11.0721 11.0018 10.7081 11.0018C10.6935 11.0018 10.6644 11.0018 10.6353 11.0018V11.0018ZM11.5964 8.4663C11.4362 8.78689 11.1013 9.00546 10.7081 9.00546C10.3295 9.00546 9.99459 8.78689 9.83441 8.4663L10.7081 5.9745L11.5964 8.4663ZM6.0047 3.97814L4.21361 8.97632C4.66502 8.88889 4.99994 8.48087 4.99994 8C4.99994 8.55373 5.45135 9.00546 6.0047 9.00546C6.55804 9.00546 7.00945 8.55373 7.00945 8C7.00945 8.48087 7.34437 8.88889 7.79578 8.97632L6.0047 3.97814V3.97814ZM8.49474 10.9581C8.33456 10.9872 8.17438 11.0018 7.99964 11.0018C7.65016 11.0018 7.31524 10.9435 7.00945 10.827C6.68909 10.9435 6.35417 11.0018 6.0047 11.0018C5.65522 11.0018 5.3203 10.9435 4.99994 10.827C4.69415 10.9435 4.35923 11.0018 4.00975 11.0018C3.83501 11.0018 3.67483 10.9872 3.51465 10.9581L2.42253 14.0036H9.58686L8.49474 10.9581V10.9581Z" fill="#A8A8A8"/>
</svg>
